<?xml version="1.0" encoding="utf-8"?>
<!-- Generator: Adobe Illustrator 19.2.1, SVG Export Plug-In . SVG Version: 6.00 Build 0)  -->
<svg version="1.1" id="Layer_1" xmlns="http://www.w3.org/2000/svg" xmlns:xlink="http://www.w3.org/1999/xlink" x="0px" y="0px"
	 viewBox="0 0 81.1 87.3" style="enable-background:new 0 0 81.1 87.3;" xml:space="preserve">
<style type="text/css">
	.st0{fill:#D5B930;}
	.st1{fill:#FDD83E;}
	.st2{fill:#4E4E4E;}
	.st3{fill:#010101;}
</style>
<g id="Layer_1_1_" transform="translate(-0.071,-82.67)">
	<path id="path13" class="st0" d="M13.6,157.1L7.6,89.2h66.6l-6.1,67.9l-27.3,7.6L13.6,157.1z"/>
	<path id="path15" class="st1" d="M40.8,158.9l22-6.1l5.2-58H40.8L40.8,158.9L40.8,158.9z"/>
	<g id="Group" transform="translate(55,142)">
		<path id="path18" class="st2" d="M8.6-22.6H-3.1v-8.5H9.4l0.7-8.3h-21.9v25.2h11.4l-1,10.8l-10.4,1.9v8.7L6.3,2.9L8.6-22.6z"/>
		<path id="path24" class="st3" d="M-16.4-39.5H-35l0.8,8.3l9.5,0v28.4l-4.6-0.7l-0.6-6.6c0,0-5.6,0-8.4,0l1.2,13.1
			c20.8,4.1,0.1,0,20.8,4.1V-39.5z"/>
	</g>
</g>
</svg>
